<?xml version="1.0"?>
<svg xmlns="http://www.w3.org/2000/svg" id="Capa_1" enable-background="new 0 0 512 512" height="512" viewBox="0 0 512 512" width="512" class=""><g><g><path d="m512 136.585c0-54.048-43.97-98.018-98.018-98.018h-246.627c-4.139 0-7.494 3.355-7.494 7.494s3.355 7.494 7.494 7.494h246.627c45.783 0 83.031 37.247 83.031 83.031s-37.247 83.031-83.031 83.031h-80.597c-16.51-50.186-63.817-86.522-119.457-86.522-55.608 0-102.891 36.292-119.428 86.432-44.157-1.852-79.513-38.338-79.513-82.942 0-45.784 37.247-83.031 83.031-83.031h31.637c4.139 0 7.494-3.355 7.494-7.494s-3.355-7.494-7.494-7.494h-31.637c-54.047.001-98.018 43.972-98.018 98.019 0 51.555 40.009 93.94 90.608 97.74-1.571 7.925-2.402 16.113-2.402 24.492 0 17.846 3.664 35.091 10.891 51.257 1.689 3.778 6.123 5.473 9.899 3.783 3.779-1.689 5.472-6.121 3.783-9.899-6.361-14.23-9.587-29.418-9.587-45.142 0-8.315.928-16.417 2.674-24.213h182.574c4.139 0 7.494-3.355 7.494-7.494s-3.355-7.494-7.494-7.494h-178.073c15.863-41.768 56.298-71.535 103.561-71.535 61.06 0 110.735 49.675 110.735 110.735s-49.675 110.735-110.735 110.735c-31.94 0-62.33-13.8-83.378-37.86-2.725-3.116-7.46-3.431-10.574-.706-3.115 2.725-3.431 7.459-.706 10.574 23.894 27.315 58.396 42.98 94.658 42.98 25.876 0 49.95-7.861 69.963-21.316l21.262 21.262c-4.67 5.685-4.354 14.122.954 19.432l58.556 58.556c7.067 7.068 16.464 10.96 26.46 10.96 9.995 0 19.393-3.892 26.46-10.96s10.959-16.465 10.959-26.46-3.892-19.393-10.959-26.46l-58.555-58.555c-2.736-2.737-6.374-4.244-10.244-4.244-3.392 0-6.606 1.158-9.19 3.286l-21.26-21.26c13.455-20.014 21.316-44.087 21.316-69.964 0-8.281-.813-16.375-2.349-24.213h76.681c54.048.002 98.018-43.969 98.018-98.017zm-105.014 283.566c4.237 4.237 6.57 9.87 6.57 15.862s-2.333 11.625-6.571 15.862c-4.237 4.237-9.869 6.57-15.861 6.57s-11.626-2.333-15.862-6.57l-58.202-58.203 31.724-31.725zm-78.039-59.562-13.247 13.247-19.786-19.786c4.736-4.083 9.164-8.511 13.247-13.247z" data-original="#000000" class="active-path" style="fill:#FFFFFF" data-old_color="#000000"/><circle cx="53.732" cy="136.585" r="8.371" data-original="#000000" class="active-path" style="fill:#FFFFFF" data-old_color="#000000"/><circle cx="85.018" cy="136.585" r="8.371" data-original="#000000" class="active-path" style="fill:#FFFFFF" data-old_color="#000000"/><circle cx="116.304" cy="136.585" r="8.371" data-original="#000000" class="active-path" style="fill:#FFFFFF" data-old_color="#000000"/><path d="m472.659 136.585c0-35.122-28.573-63.696-63.696-63.696s-63.696 28.574-63.696 63.696 28.573 63.696 63.696 63.696 63.696-28.574 63.696-63.696zm-112.404 0c0-26.858 21.85-48.708 48.708-48.708s48.708 21.85 48.708 48.708-21.85 48.708-48.708 48.708-48.708-21.85-48.708-48.708z" data-original="#000000" class="active-path" style="fill:#FFFFFF" data-old_color="#000000"/><path d="m432.042 119.217c-2.927-2.926-7.671-2.926-10.598 0l-19.992 19.992-7.922-7.922c-2.927-2.926-7.671-2.926-10.598 0-2.926 2.926-2.926 7.671 0 10.597l13.221 13.221c1.464 1.463 3.382 2.195 5.299 2.195s3.836-.732 5.299-2.195l25.291-25.291c2.926-2.926 2.926-7.671 0-10.597z" data-original="#000000" class="active-path" style="fill:#FFFFFF" data-old_color="#000000"/></g></g> </svg>
