<?xml version="1.0" encoding="UTF-8"?>
<svg xmlns="http://www.w3.org/2000/svg" viewBox="0 0 160 160" width="160px" height="160px">
<g id="surface18930175">
<path style=" stroke:none;fill-rule:nonzero;fill:rgb(100%,100%,100%);fill-opacity:1;" d="M 36 20 C 27.1875 20 20 27.1875 20 36 L 20 124 C 20 132.8125 27.1875 140 36 140 L 124 140 C 132.8125 140 140 132.8125 140 124 L 140 36 C 140 27.1875 132.8125 20 124 20 Z M 36 24 L 124 24 C 130.652344 24 136 29.347656 136 36 L 136 124 C 136 130.652344 130.652344 136 124 136 L 36 136 C 29.347656 136 24 130.652344 24 124 L 24 36 C 24 29.347656 29.347656 24 36 24 Z M 36 30 C 34.894531 30 34 30.894531 34 32 C 34 33.105469 34.894531 34 36 34 C 37.105469 34 38 33.105469 38 32 C 38 30.894531 37.105469 30 36 30 Z M 44 30 C 42.894531 30 42 30.894531 42 32 C 42 33.105469 42.894531 34 44 34 C 45.105469 34 46 33.105469 46 32 C 46 30.894531 45.105469 30 44 30 Z M 52 30 C 50.894531 30 50 30.894531 50 32 C 50 33.105469 50.894531 34 52 34 C 53.105469 34 54 33.105469 54 32 C 54 30.894531 53.105469 30 52 30 Z M 60 30 C 58.894531 30 58 30.894531 58 32 C 58 33.105469 58.894531 34 60 34 C 61.105469 34 62 33.105469 62 32 C 62 30.894531 61.105469 30 60 30 Z M 68 30 C 66.894531 30 66 30.894531 66 32 C 66 33.105469 66.894531 34 68 34 C 69.105469 34 70 33.105469 70 32 C 70 30.894531 69.105469 30 68 30 Z M 76 30 C 74.894531 30 74 30.894531 74 32 C 74 33.105469 74.894531 34 76 34 C 77.105469 34 78 33.105469 78 32 C 78 30.894531 77.105469 30 76 30 Z M 84 30 C 82.894531 30 82 30.894531 82 32 C 82 33.105469 82.894531 34 84 34 C 85.105469 34 86 33.105469 86 32 C 86 30.894531 85.105469 30 84 30 Z M 92 30 C 90.894531 30 90 30.894531 90 32 C 90 33.105469 90.894531 34 92 34 C 93.105469 34 94 33.105469 94 32 C 94 30.894531 93.105469 30 92 30 Z M 100 30 C 98.894531 30 98 30.894531 98 32 C 98 33.105469 98.894531 34 100 34 C 101.105469 34 102 33.105469 102 32 C 102 30.894531 101.105469 30 100 30 Z M 108 30 C 106.894531 30 106 30.894531 106 32 C 106 33.105469 106.894531 34 108 34 C 109.105469 34 110 33.105469 110 32 C 110 30.894531 109.105469 30 108 30 Z M 116 30 C 114.894531 30 114 30.894531 114 32 C 114 33.105469 114.894531 34 116 34 C 117.105469 34 118 33.105469 118 32 C 118 30.894531 117.105469 30 116 30 Z M 124 30 C 122.894531 30 122 30.894531 122 32 C 122 33.105469 122.894531 34 124 34 C 125.105469 34 126 33.105469 126 32 C 126 30.894531 125.105469 30 124 30 Z M 80 44 C 56.84375 44 38 59.253906 38 78 C 38 90.132812 45.917969 100.773438 57.765625 106.792969 C 56.75 114 50 118 50 118 C 59.363281 117.449219 65.378906 113.867188 68.902344 110.757812 C 72.445312 111.546875 76.152344 112 80 112 C 103.15625 112 122 96.746094 122 78 C 122 59.253906 103.15625 44 80 44 Z M 80 48 C 100.953125 48 118 61.457031 118 78 C 118 94.542969 100.953125 108 80 108 C 76.636719 108 73.195312 107.613281 69.769531 106.851562 L 67.78125 106.410156 L 66.257812 107.757812 C 64.90625 108.953125 63.054688 110.273438 60.636719 111.398438 C 61.136719 110.160156 61.519531 108.808594 61.726562 107.351562 L 62.125 104.523438 L 59.578125 103.226562 C 48.570312 97.632812 42 88.203125 42 78 C 42 61.457031 59.046875 48 80 48 Z M 36 126 C 34.894531 126 34 126.894531 34 128 C 34 129.105469 34.894531 130 36 130 C 37.105469 130 38 129.105469 38 128 C 38 126.894531 37.105469 126 36 126 Z M 44 126 C 42.894531 126 42 126.894531 42 128 C 42 129.105469 42.894531 130 44 130 C 45.105469 130 46 129.105469 46 128 C 46 126.894531 45.105469 126 44 126 Z M 52 126 C 50.894531 126 50 126.894531 50 128 C 50 129.105469 50.894531 130 52 130 C 53.105469 130 54 129.105469 54 128 C 54 126.894531 53.105469 126 52 126 Z M 60 126 C 58.894531 126 58 126.894531 58 128 C 58 129.105469 58.894531 130 60 130 C 61.105469 130 62 129.105469 62 128 C 62 126.894531 61.105469 126 60 126 Z M 68 126 C 66.894531 126 66 126.894531 66 128 C 66 129.105469 66.894531 130 68 130 C 69.105469 130 70 129.105469 70 128 C 70 126.894531 69.105469 126 68 126 Z M 76 126 C 74.894531 126 74 126.894531 74 128 C 74 129.105469 74.894531 130 76 130 C 77.105469 130 78 129.105469 78 128 C 78 126.894531 77.105469 126 76 126 Z M 84 126 C 82.894531 126 82 126.894531 82 128 C 82 129.105469 82.894531 130 84 130 C 85.105469 130 86 129.105469 86 128 C 86 126.894531 85.105469 126 84 126 Z M 92 126 C 90.894531 126 90 126.894531 90 128 C 90 129.105469 90.894531 130 92 130 C 93.105469 130 94 129.105469 94 128 C 94 126.894531 93.105469 126 92 126 Z M 100 126 C 98.894531 126 98 126.894531 98 128 C 98 129.105469 98.894531 130 100 130 C 101.105469 130 102 129.105469 102 128 C 102 126.894531 101.105469 126 100 126 Z M 108 126 C 106.894531 126 106 126.894531 106 128 C 106 129.105469 106.894531 130 108 130 C 109.105469 130 110 129.105469 110 128 C 110 126.894531 109.105469 126 108 126 Z M 116 126 C 114.894531 126 114 126.894531 114 128 C 114 129.105469 114.894531 130 116 130 C 117.105469 130 118 129.105469 118 128 C 118 126.894531 117.105469 126 116 126 Z M 124 126 C 122.894531 126 122 126.894531 122 128 C 122 129.105469 122.894531 130 124 130 C 125.105469 130 126 129.105469 126 128 C 126 126.894531 125.105469 126 124 126 Z M 124 126 "/>
</g>
</svg>
